<svg xmlns="http://www.w3.org/2000/svg" viewBox="0 0 768 256" preserveAspectRatio="xMidYMid slice"><defs><linearGradient id="sky" x1="0" y1="0" x2="0" y2="1"><stop offset="0" stop-color="#1b2440"/><stop offset="1" stop-color="#0a0d14"/></linearGradient><radialGradient id="glow" cx="0.5" cy="0.4" r="0.6"><stop offset="0" stop-color="#e8c15a" stop-opacity="0.35"/><stop offset="1" stop-color="#e8c15a" stop-opacity="0"/></radialGradient></defs><rect width="768" height="256" fill="url(#sky)"/><circle cx="341" cy="27" r="1" fill="#cfd6e4" opacity="0.6"/><circle cx="59" cy="17" r="1.3" fill="#cfd6e4" opacity="0.25"/><circle cx="384" cy="82" r="0.7" fill="#cfd6e4" opacity="0.6"/><circle cx="229" cy="12" r="0.7" fill="#cfd6e4" opacity="0.4"/><circle cx="438" cy="16" r="0.7" fill="#cfd6e4" opacity="0.25"/><circle cx="574" cy="62" r="0.7" fill="#cfd6e4" opacity="0.6"/><circle cx="136" cy="36" r="1.3" fill="#cfd6e4" opacity="0.6"/><circle cx="606" cy="15" r="1.3" fill="#cfd6e4" opacity="0.6"/><circle cx="416" cy="14" r="0.7" fill="#cfd6e4" opacity="0.25"/><circle cx="580" cy="117" r="0.7" fill="#cfd6e4" opacity="0.4"/><circle cx="439" cy="26" r="1.3" fill="#cfd6e4" opacity="0.25"/><circle cx="594" cy="47" r="1.3" fill="#cfd6e4" opacity="0.6"/><circle cx="195" cy="21" r="1.3" fill="#cfd6e4" opacity="0.6"/><circle cx="664" cy="32" r="1" fill="#cfd6e4" opacity="0.25"/><circle cx="570" cy="99" r="0.7" fill="#cfd6e4" opacity="0.6"/><circle cx="71" cy="87" r="0.7" fill="#cfd6e4" opacity="0.4"/><circle cx="706" cy="76" r="1" fill="#cfd6e4" opacity="0.4"/><circle cx="486" cy="82" r="1" fill="#cfd6e4" opacity="0.4"/><circle cx="316" cy="39" r="0.7" fill="#cfd6e4" opacity="0.6"/><circle cx="259" cy="18" r="1.3" fill="#cfd6e4" opacity="0.4"/><circle cx="547" cy="71" r="1" fill="#cfd6e4" opacity="0.6"/><circle cx="469" cy="44" r="1.3" fill="#cfd6e4" opacity="0.25"/><circle cx="130" cy="73" r="1" fill="#cfd6e4" opacity="0.25"/><circle cx="360" cy="27" r="1" fill="#cfd6e4" opacity="0.4"/><circle cx="50" cy="93" r="0.7" fill="#cfd6e4" opacity="0.6"/><circle cx="596" cy="109" r="1" fill="#cfd6e4" opacity="0.4"/><circle cx="721" cy="52" r="1.3" fill="#cfd6e4" opacity="0.4"/><circle cx="603" cy="110" r="1" fill="#cfd6e4" opacity="0.25"/><circle cx="105" cy="42" r="1" fill="#cfd6e4" opacity="0.6"/><circle cx="690" cy="16" r="0.7" fill="#cfd6e4" opacity="0.6"/><circle cx="728" cy="47" r="1.3" fill="#cfd6e4" opacity="0.6"/><circle cx="707" cy="113" r="1" fill="#cfd6e4" opacity="0.4"/><circle cx="743" cy="57" r="1.3" fill="#cfd6e4" opacity="0.4"/><circle cx="33" cy="67" r="1" fill="#cfd6e4" opacity="0.25"/><circle cx="635" cy="22" r="1" fill="#cfd6e4" opacity="0.25"/><circle cx="233" cy="106" r="1" fill="#cfd6e4" opacity="0.25"/><circle cx="263" cy="58" r="1" fill="#cfd6e4" opacity="0.4"/><circle cx="92" cy="29" r="1" fill="#cfd6e4" opacity="0.4"/><circle cx="572" cy="43" r="0.7" fill="#cfd6e4" opacity="0.4"/><circle cx="573" cy="43" r="1.3" fill="#cfd6e4" opacity="0.4"/><circle cx="610" cy="58" r="34" fill="#cfd6e4" opacity="0.9"/><circle cx="598" cy="50" r="30" fill="#141b2c" opacity="0.55"/><rect x="0" y="170" width="768" height="7" fill="#141b2c" opacity="0.8"/><rect x="0" y="188" width="768" height="7" fill="#141b2c" opacity="0.68"/><rect x="0" y="206" width="768" height="7" fill="#141b2c" opacity="0.56"/><rect x="0" y="224" width="768" height="7" fill="#141b2c" opacity="0.44000000000000006"/><rect x="0" y="242" width="768" height="7" fill="#141b2c" opacity="0.32000000000000006"/><path d="M250,196 C290,160 360,160 400,182 C430,198 470,192 500,176 C520,166 540,170 548,182 C540,192 520,196 500,198 C460,210 300,214 250,196 Z" fill="#1b2440" stroke="#7ea7d8" stroke-width="1" opacity="0.95"/><circle cx="527" cy="180" r="2.4" fill="#7ea7d8"/><path d="M548,182 C560,178 566,170 568,162" stroke="#7ea7d8" stroke-width="1.4" fill="none"/><g stroke="#7ea7d8" stroke-width="0.7" opacity="0.5"><line x1="364" y1="150" x2="294" y2="176"/><line x1="493" y1="173" x2="532" y2="186"/><line x1="383" y1="158" x2="483" y2="189"/><line x1="555" y1="193" x2="247" y2="179"/><line x1="506" y1="175" x2="423" y2="175"/><line x1="421" y1="156" x2="466" y2="190"/><line x1="425" y1="153" x2="317" y2="154"/><line x1="326" y1="178" x2="303" y2="157"/><line x1="394" y1="188" x2="246" y2="156"/><line x1="220" y1="186" x2="297" y2="184"/></g></svg>